<svg aria-hidden="true" style="position: absolute; width: 0; height: 0; overflow: hidden;" version="1.1" xmlns="http://www.w3.org/2000/svg" xmlns:xlink="http://www.w3.org/1999/xlink">
<defs>
<symbol id="icon-eye" viewBox="0 0 24 24">
<path d="M0.106 11.553c-0.136 0.274-0.146 0.603 0 0.894 0 0 0.396 0.789 1.12 1.843 0.451 0.656 1.038 1.432 1.757 2.218 0.894 0.979 2.004 1.987 3.319 2.8 1.595 0.986 3.506 1.692 5.698 1.692s4.103-0.706 5.698-1.692c1.315-0.813 2.425-1.821 3.319-2.8 0.718-0.786 1.306-1.562 1.757-2.218 0.724-1.054 1.12-1.843 1.12-1.843 0.136-0.274 0.146-0.603 0-0.894 0 0-0.396-0.789-1.12-1.843-0.451-0.656-1.038-1.432-1.757-2.218-0.894-0.979-2.004-1.987-3.319-2.8-1.595-0.986-3.506-1.692-5.698-1.692s-4.103 0.706-5.698 1.692c-1.315 0.813-2.425 1.821-3.319 2.8-0.719 0.786-1.306 1.561-1.757 2.218-0.724 1.054-1.12 1.843-1.12 1.843zM2.14 12c0.163-0.281 0.407-0.681 0.734-1.158 0.41-0.596 0.94-1.296 1.585-2.001 0.805-0.881 1.775-1.756 2.894-2.448 1.35-0.834 2.901-1.393 4.647-1.393s3.297 0.559 4.646 1.393c1.119 0.692 2.089 1.567 2.894 2.448 0.644 0.705 1.175 1.405 1.585 2.001 0.328 0.477 0.572 0.876 0.734 1.158-0.163 0.281-0.407 0.681-0.734 1.158-0.41 0.596-0.94 1.296-1.585 2.001-0.805 0.881-1.775 1.756-2.894 2.448-1.349 0.834-2.9 1.393-4.646 1.393s-3.297-0.559-4.646-1.393c-1.119-0.692-2.089-1.567-2.894-2.448-0.644-0.705-1.175-1.405-1.585-2.001-0.328-0.477-0.572-0.877-0.735-1.158zM16 12c0-1.104-0.449-2.106-1.172-2.828s-1.724-1.172-2.828-1.172-2.106 0.449-2.828 1.172-1.172 1.724-1.172 2.828 0.449 2.106 1.172 2.828 1.724 1.172 2.828 1.172 2.106-0.449 2.828-1.172 1.172-1.724 1.172-2.828zM14 12c0 0.553-0.223 1.051-0.586 1.414s-0.861 0.586-1.414 0.586-1.051-0.223-1.414-0.586-0.586-0.861-0.586-1.414 0.223-1.051 0.586-1.414 0.861-0.586 1.414-0.586 1.051 0.223 1.414 0.586 0.586 0.861 0.586 1.414z"></path>
</symbol>
<symbol id="icon-home" viewBox="0 0 24 24">
<path d="M2.386 8.211c-0.236 0.184-0.386 0.469-0.386 0.789v11c0 0.828 0.337 1.58 0.879 2.121s1.293 0.879 2.121 0.879h14c0.828 0 1.58-0.337 2.121-0.879s0.879-1.293 0.879-2.121v-11c-0.001-0.3-0.134-0.593-0.386-0.789l-9-7c-0.358-0.275-0.861-0.285-1.228 0zM16 21v-9c0-0.552-0.448-1-1-1h-6c-0.552 0-1 0.448-1 1v9h-3c-0.276 0-0.525-0.111-0.707-0.293s-0.293-0.431-0.293-0.707v-10.511l8-6.222 8 6.222v10.511c0 0.276-0.111 0.525-0.293 0.707s-0.431 0.293-0.707 0.293zM10 21v-8h4v8z"></path>
</symbol>
<symbol id="icon-message-square" viewBox="0 0 24 24">
<path d="M22 15v-10c0-0.828-0.337-1.58-0.879-2.121s-1.293-0.879-2.121-0.879h-14c-0.828 0-1.58 0.337-2.121 0.879s-0.879 1.293-0.879 2.121v16c0 0.256 0.098 0.512 0.293 0.707 0.391 0.391 1.024 0.391 1.414 0l3.707-3.707h11.586c0.828 0 1.58-0.337 2.121-0.879s0.879-1.293 0.879-2.121zM20 15c0 0.276-0.111 0.525-0.293 0.707s-0.431 0.293-0.707 0.293h-12c-0.276 0-0.526 0.112-0.707 0.293l-2.293 2.293v-13.586c0-0.276 0.111-0.525 0.293-0.707s0.431-0.293 0.707-0.293h14c0.276 0 0.525 0.111 0.707 0.293s0.293 0.431 0.293 0.707z"></path>
</symbol>
<symbol id="icon-wind" viewBox="0 0 24 24">
<path d="M10.299 5.295c0.195-0.196 0.449-0.294 0.706-0.295s0.512 0.096 0.708 0.291 0.294 0.449 0.295 0.706-0.096 0.512-0.291 0.708c-0.192 0.194-0.442 0.292-0.697 0.295h-9.020c-0.552 0-1 0.448-1 1s0.448 1 1 1h9.043c0.758-0.009 1.516-0.304 2.093-0.885 0.584-0.587 0.875-1.358 0.872-2.124s-0.298-1.535-0.885-2.119-1.357-0.874-2.123-0.872-1.535 0.298-2.119 0.885c-0.39 0.392-0.388 1.025 0.004 1.414s1.025 0.387 1.414-0.004zM11.881 20.115c0.584 0.587 1.352 0.883 2.119 0.885s1.537-0.289 2.124-0.872 0.883-1.352 0.885-2.119-0.289-1.537-0.872-2.124c-0.577-0.581-1.335-0.876-2.093-0.885h-12.044c-0.552 0-1 0.448-1 1s0.448 1 1 1h12.020c0.255 0.003 0.505 0.101 0.698 0.295 0.195 0.196 0.292 0.451 0.291 0.708s-0.099 0.511-0.295 0.706-0.451 0.292-0.708 0.291-0.511-0.099-0.706-0.295c-0.389-0.392-1.023-0.394-1.414-0.004s-0.394 1.023-0.004 1.414zM18.436 8.438c0.294-0.293 0.676-0.438 1.061-0.438s0.767 0.147 1.060 0.441 0.438 0.676 0.438 1.061-0.147 0.767-0.441 1.060c-0.292 0.292-0.673 0.437-1.057 0.438h-17.497c-0.552 0-1 0.448-1 1s0.448 1 1 1h17.502c0.891-0.002 1.784-0.342 2.466-1.022 0.684-0.682 1.027-1.579 1.028-2.474s-0.34-1.792-1.022-2.476-1.58-1.027-2.474-1.028-1.792 0.34-2.476 1.022c-0.391 0.39-0.392 1.023-0.002 1.414s1.023 0.392 1.414 0.002z"></path>
</symbol>
<symbol id="icon-search" viewBox="0 0 32 32">
<path d="M19.427 20.427c-1.39 0.99-3.090 1.573-4.927 1.573-4.694 0-8.5-3.806-8.5-8.5s3.806-8.5 8.5-8.5c4.694 0 8.5 3.806 8.5 8.5 0 2.347-0.951 4.472-2.49 6.010l5.997 5.997c0.275 0.275 0.268 0.716-0.008 0.992-0.278 0.278-0.72 0.28-0.992 0.008l-6.081-6.081zM14.5 21c4.142 0 7.5-3.358 7.5-7.5s-3.358-7.5-7.5-7.5c-4.142 0-7.5 3.358-7.5 7.5s3.358 7.5 7.5 7.5v0z"></path>
</symbol>
<symbol id="icon-raindrop" viewBox="0 0 32 32">
<path d="M12 18.211c0-2.526 4-8.211 4-8.211s4 5.684 4 8.211c0 2.093-1.791 3.789-4 3.789s-4-1.697-4-3.789z"></path>
</symbol>
<symbol id="icon-barometer" viewBox="0 0 32 32">
<path d="M17.892 21.423c0.668 0.449 1.108 1.212 1.108 2.077 0 1.381-1.119 2.5-2.5 2.5s-2.5-1.119-2.5-2.5c0-0.866 0.44-1.628 1.108-2.077l1.392-7.423 1.392 7.423zM29.276 23.872c0.469-1.371 0.724-2.842 0.724-4.372 0-7.456-6.044-13.5-13.5-13.5s-13.5 6.044-13.5 13.5c0 1.53 0.255 3.001 0.724 4.372l0.958-0.29c-0.442-1.279-0.681-2.652-0.681-4.081 0-6.904 5.596-12.5 12.5-12.5s12.5 5.596 12.5 12.5c0 1.429-0.24 2.802-0.681 4.081l0.958 0.29zM16.5 25c0.828 0 1.5-0.672 1.5-1.5s-0.672-1.5-1.5-1.5c-0.828 0-1.5 0.672-1.5 1.5s0.672 1.5 1.5 1.5v0 0zM16.5 8c-0.276 0-0.5 0.215-0.5 0.49v3.019c0 0.271 0.232 0.49 0.5 0.49 0.276 0 0.5-0.215 0.5-0.49v-3.019c0-0.271-0.232-0.49-0.5-0.49v0 0zM23.261 10.197c-0.223-0.162-0.531-0.12-0.693 0.103l-1.775 2.442c-0.159 0.219-0.101 0.533 0.116 0.691 0.223 0.162 0.531 0.12 0.693-0.103l1.775-2.442c0.159-0.219 0.101-0.533-0.116-0.691v0 0zM27.44 15.948c-0.085-0.263-0.359-0.409-0.621-0.324l-2.871 0.933c-0.258 0.084-0.395 0.372-0.312 0.627 0.085 0.263 0.359 0.409 0.621 0.324l2.871-0.933c0.258-0.084 0.395-0.372 0.312-0.627v0 0zM27.44 23.058c0.085-0.263-0.050-0.542-0.312-0.627l-2.871-0.933c-0.258-0.084-0.538 0.069-0.621 0.324-0.085 0.263 0.050 0.542 0.312 0.627l2.871 0.933c0.258 0.084 0.538-0.069 0.621-0.324v0 0zM5.56 23.058c0.085 0.263 0.359 0.409 0.621 0.324l2.871-0.933c0.258-0.084 0.395-0.372 0.312-0.627-0.085-0.263-0.359-0.409-0.621-0.324l-2.871 0.933c-0.258 0.084-0.395 0.372-0.312 0.627v0 0zM5.56 15.948c-0.085 0.263 0.050 0.542 0.312 0.627l2.871 0.933c0.258 0.084 0.538-0.069 0.621-0.324 0.085-0.263-0.050-0.542-0.312-0.627l-2.871-0.933c-0.258-0.084-0.538 0.069-0.621 0.324v0 0zM9.739 10.197c-0.223 0.162-0.278 0.468-0.116 0.691l1.775 2.442c0.159 0.219 0.476 0.26 0.693 0.103 0.223-0.162 0.278-0.468 0.116-0.691l-1.775-2.442c-0.159-0.219-0.476-0.26-0.693-0.103v0 0z"></path>
</symbol>
<symbol id="icon-thermometer-half" viewBox="0 0 32 32">
<path d="M16.986 23.166c1.173 0.408 2.014 1.523 2.014 2.834 0 1.657-1.343 3-3 3s-3-1.343-3-3c0-1.311 0.841-2.426 2.014-2.834-0.009-0.055-0.014-0.111-0.014-0.168v-9.995c0-0.547 0.448-1.002 1-1.002 0.556 0 1 0.449 1 1.002v9.995c0 0.057-0.005 0.113-0.014 0.168v0zM18 22.535v-18.532c0-1.107-0.888-2.004-2-2.004-1.105 0-2 0.89-2 2.004v18.532c-1.196 0.692-2 1.984-2 3.465 0 2.209 1.791 4 4 4s4-1.791 4-4c0-1.481-0.804-2.773-2-3.465zM19.969 21.5c1.246 1.099 2.031 2.708 2.031 4.5 0 3.314-2.686 6-6 6s-6-2.686-6-6c0-1.792 0.786-3.401 2.031-4.5-0.021-0.165-0.031-0.332-0.031-0.503v-16.994c0-2.205 1.791-4.003 4-4.003 2.205 0 4 1.792 4 4.003v16.994c0 0.17-0.011 0.338-0.031 0.503v0 0z"></path>
</symbol>
<symbol id="icon-drop" viewBox="0 0 20 20">
<path d="M10.203 0.561c-0.027-0.215-0.38-0.215-0.406 0-0.883 7.107-5.398 8.572-5.398 13.512 0 3.053 2.564 5.527 5.601 5.527s5.6-2.475 5.6-5.527c0-4.94-4.514-6.405-5.397-13.512zM9.35 8.418c-0.059 0.219-0.123 0.444-0.189 0.678-0.401 1.424-0.856 3.039-0.856 4.906 0 1.012-0.598 1.371-1.156 1.371-0.639 0-1.156-0.523-1.156-1.166 0-2.207 1.062-3.649 2-4.92 0.295-0.398 0.572-0.775 0.797-1.15 0.103-0.172 0.38-0.164 0.506 0.006 0.059 0.080 0.079 0.182 0.054 0.275z"></path>
</symbol>
<symbol id="icon-home1" viewBox="0 0 20 20">
<path d="M18.672 11h-1.672v6c0 0.445-0.194 1-1 1h-4v-6h-4v6h-4c-0.806 0-1-0.555-1-1v-6h-1.672c-0.598 0-0.47-0.324-0.060-0.748l8.024-8.032c0.195-0.202 0.451-0.302 0.708-0.312 0.257 0.010 0.513 0.109 0.708 0.312l8.023 8.031c0.411 0.425 0.539 0.749-0.059 0.749z"></path>
</symbol>
</defs>
</svg>
